<?xml version="1.0" encoding="UTF-8"?>
<svg xmlns="http://www.w3.org/2000/svg" onmouseup="{ if(window.parent.document.onmouseup) window.parent.document.onmouseup(arguments[0]);}" xml:space="preserve" style="enable-background:new 0 0 512 512;" viewBox="0 0 512 512" y="0px" x="0px" id="Capa_1" version="1.1" xmlns:xlink="http://www.w3.org/1999/xlink">
<style type="text/css">
	.st0{fill:#636363;}
</style>
<g>
	<path class="st0" d="M0,256c0,141.4,114.6,256,256,256c141.3,0,256-114.6,256-256C512,114.7,397.3,0,256,0C114.6,0,0,114.7,0,256z    M378.1,364.1c0-5.1,2.9-9.4,7-11.8V224.7H399v127.6c4.1,2.4,7,6.7,7,11.8c0,7.7-6.3,13.9-14,13.9   C384.3,378,378.1,371.8,378.1,364.1z M136.5,245.4L256,288.1l119.5-42.7v82.4c0,16.5-53.5,41.8-119.5,41.8   c-66,0-119.5-25.3-119.5-41.8V245.4z M60.9,203.6L256,133.9l195.1,69.7l-45.3,16.2l-136.2-21c-2-5.6-7.2-9.8-13.6-9.8   c-8.1,0-14.5,6.5-14.5,14.5c0,8.1,6.5,14.6,14.5,14.6c4.6,0,8.5-2.2,11.1-5.6l111,17.1L256,273.3L60.9,203.6z"/>
</g>
</svg>